<?xml version="1.0" standalone="no"?>
<!DOCTYPE svg PUBLIC "-//W3C//DTD SVG 20010904//EN"
 "http://www.w3.org/TR/2001/REC-SVG-20010904/DTD/svg10.dtd">
<svg version="1.0" xmlns="http://www.w3.org/2000/svg"
 width="300.000000pt" height="300.000000pt" viewBox="0 0 300.000000 300.000000"
 preserveAspectRatio="xMidYMid meet">
<metadata>
Created by potrace 1.10, written by Peter Selinger 2001-2011
</metadata>
<g transform="translate(0.000000,300.000000) scale(0.100000,-0.100000)"
fill="#000000" stroke="none">
<path d="M2128 2254 c-40 -21 -36 -46 27 -175 30 -62 55 -118 55 -124 0 -13
-30 -25 -66 -25 -14 0 -36 20 -66 58 -25 32 -74 80 -109 106 -137 103 -263
146 -429 146 -129 0 -196 -16 -318 -76 -74 -36 -109 -61 -170 -122 -43 -42
-89 -98 -102 -125 -18 -34 -29 -45 -40 -41 -109 46 -252 60 -360 35 -76 -18
-186 -73 -243 -122 -64 -55 -131 -152 -163 -235 -35 -91 -44 -239 -20 -334 54
-215 225 -380 441 -425 104 -22 1746 -22 1850 0 202 43 378 211 430 412 19 73
19 222 0 293 -33 126 -140 277 -229 325 -20 11 -36 22 -36 25 0 3 59 35 131
70 72 36 143 78 160 94 40 39 55 96 34 136 -19 37 -42 50 -103 56 -42 5 -59 0
-173 -55 -70 -34 -133 -61 -141 -61 -15 0 -73 37 -203 130 -75 53 -109 61
-157 34z m132 -59 c36 -25 93 -65 128 -90 84 -60 104 -59 247 10 84 40 126 55
158 55 78 0 106 -43 72 -111 -13 -24 -69 -56 -338 -190 l-322 -161 -61 5 c-34
2 -67 8 -73 12 -19 11 -83 146 -77 161 10 27 52 34 98 18 36 -12 51 -13 88 -3
53 14 70 26 70 48 0 9 -27 71 -60 139 -33 67 -60 125 -60 128 0 5 40 22 55 23
6 1 39 -19 75 -44z m-515 -19 c93 -29 207 -101 280 -175 46 -47 48 -51 25 -51
-14 0 -40 -9 -57 -20 -25 -15 -33 -27 -33 -49 0 -30 61 -161 83 -180 8 -6 45
-16 83 -22 l70 -12 172 83 c200 97 181 97 293 -8 302 -283 179 -787 -220 -906
-48 -14 -156 -16 -950 -16 -972 0 -941 -1 -1060 56 -80 39 -188 151 -233 241
-151 303 19 672 348 757 207 53 444 -30 561 -198 21 -31 41 -55 44 -56 15 0
-10 70 -35 103 -25 33 -109 103 -149 124 -16 8 -15 13 13 57 65 101 178 199
288 249 142 63 325 72 477 23z"/>
<path d="M630 1601 c-49 -16 -89 -41 -110 -71 -18 -26 -19 -31 -6 -36 9 -4 27
7 46 30 69 78 200 67 236 -21 8 -18 14 -47 14 -66 l0 -33 -97 -12 c-151 -19
-209 -56 -220 -142 -8 -55 20 -105 71 -130 73 -35 150 -20 209 42 l37 39 0
-46 c0 -33 4 -45 15 -45 13 0 15 27 15 183 0 170 -2 186 -22 227 -13 25 -37
52 -53 62 -37 21 -101 30 -135 19z m180 -276 c0 -70 -17 -112 -63 -152 -106
-93 -258 -22 -217 102 15 47 64 71 177 89 48 7 91 14 96 15 4 0 7 -24 7 -54z"/>
<path d="M1489 1597 c-45 -17 -73 -36 -99 -70 -36 -45 0 -44 46 1 46 47 99 60
158 40 51 -17 78 -54 84 -116 l4 -49 -68 -7 c-147 -16 -211 -43 -239 -103 -33
-70 -2 -148 72 -179 65 -28 141 -9 196 48 l37 39 0 -46 c0 -34 4 -45 16 -45
14 0 15 23 12 198 -3 188 -4 199 -26 230 -42 58 -126 84 -193 59z m191 -272
c0 -70 -17 -112 -63 -152 -106 -93 -258 -22 -217 102 15 47 64 71 177 89 48 7
91 14 96 15 4 0 7 -24 7 -54z"/>
<path d="M2295 1601 c-114 -29 -177 -117 -179 -247 0 -60 4 -80 29 -130 43
-82 103 -119 194 -119 81 1 139 28 181 86 84 117 52 317 -62 383 -48 27 -117
39 -163 27z m100 -32 c52 -13 109 -66 127 -118 21 -61 16 -159 -11 -214 -55
-112 -201 -142 -291 -61 -53 48 -72 93 -72 173 -1 110 45 186 129 216 47 17
63 18 118 4z"/>
<path d="M2579 1589 c-10 -20 -9 -25 11 -41 23 -19 24 -19 44 2 16 16 18 24
10 38 -17 26 -51 27 -65 1z m61 -14 c0 -12 -21 -25 -40 -25 -4 0 -11 7 -14 15
-4 10 2 19 17 24 25 10 37 6 37 -14z"/>
<path d="M912 1588 c13 -56 185 -478 195 -478 8 0 125 277 199 474 5 14 3 17
-11 15 -13 -3 -39 -60 -96 -204 -43 -110 -78 -206 -79 -212 -1 -38 -23 8 -97
200 -56 147 -86 213 -98 215 -10 3 -16 -2 -13 -10z"/>
<path d="M1847 1593 c-4 -3 -7 -114 -7 -245 0 -196 2 -238 14 -238 11 0 14 33
18 168 3 149 6 172 26 214 28 58 64 82 121 82 26 1 46 6 48 14 3 8 -11 12 -50
12 -45 0 -61 -5 -87 -26 -17 -15 -37 -41 -45 -58 -13 -31 -13 -31 -14 27 -1
53 -8 67 -24 50z"/>
</g>
</svg>
